# xmcd
#
# Track frame offsets:
#	150
#	18604
#	36816
#	50308
#	65101
#	83053
#	101037
#	116355
#	135358
#	150557
#	166468
#	178868
#	194597
#	211613
#	229957
#
# Disc length: 3246 seconds
#
# Revision: 2
# Processed by: cddbd v1.5.2PL0 Copyright (c) Steve Scherf et al.
# Submitted via: audiograbber 1.83.01
#
DISCID=c90cac0f
DTITLE=Various Artist - CDX 286
DYEAR=2002
DGENRE=Country
TTITLE0=Gabbie Nolen - Almost there
TTITLE1=McBride and The Ride - Anything that touches you
TTITLE2=Jamie O'neal - Frantic
TTITLE3=SheDaisy - Get over your self
TTITLE4=Rhett Atkins - Highway Sunrise
TTITLE5=Sara Evans - I Keep Looking
TTITLE6=Brad Paisley - I'm gonna miss her
TTITLE7=Willie Nelson and Lee Ann Womack - Mendocino County Line
TTITLE8=Joanna Janet - Since i've seen you last
TTITLE9=Leslie Satcher - The Slow Way Home
TTITLE10=Jimmy C. Newman - You can kiss my ashley (from now on)
TTITLE11=Michael Mason - Cape Lonely
TTITLE12=Steve Kramer - Mustang Love
TTITLE13=Randall Terry - United we stand
TTITLE14=B.B. Watson - Drivin' under the influence of love
EXTD=
EXTT0=
EXTT1=
EXTT2=
EXTT3=
EXTT4=
EXTT5=
EXTT6=
EXTT7=
EXTT8=
EXTT9=
EXTT10=
EXTT11=
EXTT12=
EXTT13=
EXTT14=
PLAYORDER=
